<svg width="191.223388671875px" height="120.54942932128905px" xmlns="http://www.w3.org/2000/svg" viewBox="154.3883056640625 14.725285339355473 191.223388671875 120.54942932128905" style="background: rgba(0, 0, 0, 0);" preserveAspectRatio="xMidYMid"><defs><linearGradient id="editing-gradow-gradient" x1="0" x2="1" y1="0.5" y2="0.5" gradientUnits="objectBoundingBox"><stop offset="0" stop-color="#f0f"></stop><stop offset="1" stop-color="#0ff"></stop></linearGradient><filter id="editing-gradow-filter" x="-100%" y="-100%" width="300%" height="300%"><feFlood flood-color="#fffcd9" result="flood"></feFlood><feComposite operator="in" in2="SourceAlpha" in="flood" result="shadow"></feComposite><feOffset dx="-4" dy="-4" in="SourceGraphic" result="offset-1"></feOffset><feOffset dx="4" dy="4" in="shadow" result="offset-2"></feOffset><feMerge><feMergeNode in="offset-2"></feMergeNode><feMergeNode in="offset-1"></feMergeNode></feMerge></filter></defs><g filter="url(#editing-gradow-filter)"><g transform="translate(189.25687217712402, 97.39999961853027)"><path d="M29.18 1.28L29.18 1.28L29.18 1.28Q20.99 1.28 20.22-10.37L20.22-10.37L9.22-10.37L9.22-10.37Q7.94-7.42 7.04-4.86L7.04-4.86L5.38 0L-3.58 0L16.58-42.24L30.34-42.24L33.02-11.14L33.02-11.14Q33.66-4.42 36.22-2.43L36.22-2.43L36.22-2.43Q34.37 1.28 29.18 1.28ZM14.72-23.17L11.20-15.04L20.03-15.04L19.26-31.49L19.26-33.22L14.72-23.17ZM64.90-29.57L64.90-29.57L64.90-29.57Q65.86-31.49 65.86-33.28L65.86-33.28L65.86-33.28Q65.86-35.07 65.66-36.06L65.66-36.06L65.66-36.06Q65.47-37.06 65.02-37.82L65.02-37.82L65.02-37.82Q64.06-39.49 62.14-39.49L62.14-39.49L62.14-39.49Q59.78-39.49 57.86-37.76L57.86-37.76L57.86-37.76Q55.81-35.97 55.81-33.15L55.81-33.15L55.81-33.15Q55.81-31.36 57.06-29.98L57.06-29.98L57.06-29.98Q58.30-28.61 60.22-27.33L60.22-27.33L60.22-27.33Q62.14-26.05 64.32-24.77L64.32-24.77L64.32-24.77Q66.50-23.49 68.42-21.95L68.42-21.95L68.42-21.95Q72.83-18.43 72.83-13.70L72.83-13.70L72.83-13.70Q72.83-10.50 71.14-7.78L71.14-7.78L71.14-7.78Q69.44-5.06 66.62-3.07L66.62-3.07L66.62-3.07Q60.48 1.28 52.35 1.28L52.35 1.28L52.35 1.28Q45.76 1.28 42.37-0.86L42.37-0.86L42.37-0.86Q38.98-3.01 38.98-6.27L38.98-6.27L38.98-6.27Q38.98-12.10 43.52-13.57L43.52-13.57L43.52-13.57Q44.80-14.02 46.75-14.02L46.75-14.02L46.75-14.02Q48.70-14.02 50.94-13.18L50.94-13.18L50.94-13.18Q49.92-10.56 49.92-8.19L49.92-8.19L49.92-8.19Q49.92-3.07 53.57-3.07L53.57-3.07L53.57-3.07Q55.94-3.07 57.89-4.80L57.89-4.80L57.89-4.80Q59.84-6.53 59.84-8.48L59.84-8.48L59.84-8.48Q59.84-10.43 58.59-11.84L58.59-11.84L58.59-11.84Q57.34-13.25 55.49-14.37L55.49-14.37L55.49-14.37Q53.63-15.49 51.49-16.58L51.49-16.58L51.49-16.58Q49.34-17.66 47.49-19.20L47.49-19.20L47.49-19.20Q43.14-22.72 43.14-28.35L43.14-28.35L43.14-28.35Q43.14-32 44.93-34.85L44.93-34.85L44.93-34.85Q46.72-37.70 49.60-39.62L49.60-39.62L49.60-39.62Q55.36-43.52 62.43-43.52L62.43-43.52L62.43-43.52Q69.50-43.52 72.93-41.41L72.93-41.41L72.93-41.41Q76.35-39.30 76.35-35.71L76.35-35.71L76.35-35.71Q76.35-32.58 73.92-30.59L73.92-30.59L73.92-30.59Q71.81-28.93 69.25-28.93L69.25-28.93L69.25-28.93Q66.69-28.93 64.90-29.57ZM101.57-4.80L101.57-4.80L101.57-4.80Q101.57-9.28 103.36-18.24L103.36-18.24L93.89-18.24L90.37 0L76.99 0L85.12-42.24L98.62-42.24L94.91-23.36L104.38-23.36L107.90-42.24L121.41-42.24L121.41-42.24Q120.51-37.50 119.36-32.19L119.36-32.19L117.18-21.76L117.18-21.76Q114.75-9.60 114.75-4.29L114.75-4.29L114.75-4.29Q114.75-2.11 115.46-0.90L115.46-0.90L115.46-0.90Q112.26 1.28 108.51 1.28L108.51 1.28L108.51 1.28Q104.77 1.28 103.17-0.51L103.17-0.51L103.17-0.51Q101.57-2.30 101.57-4.80Z" fill="url(#editing-gradow-gradient)"></path></g></g><style>text {
  font-size: 64px;
  font-family: Arial Black;
  dominant-baseline: central;
  text-anchor: middle;
}</style></svg>